# Blender 4.0.2
# www.blender.org
mtllib Fire.mtl
o Cube
v 0.500000 1.060660 0.646447
v 0.500000 0.353553 -0.060660
v 0.500000 -0.353553 2.060660
v 0.500000 -1.060660 1.353553
v -0.500000 1.060660 0.646447
v -0.500000 0.353553 -0.060660
v -0.500000 -0.353553 2.060660
v -0.500000 -1.060660 1.353553
vn -0.0000 0.7071 0.7071
vn -0.0000 -0.7071 0.7071
vn -1.0000 -0.0000 -0.0000
vn -0.0000 -0.7071 -0.7071
vn 1.0000 -0.0000 -0.0000
vn -0.0000 0.7071 -0.7071
vt 0.625000 0.500000
vt 0.875000 0.500000
vt 0.875000 0.750000
vt 0.625000 0.750000
vt 0.375000 0.750000
vt 0.625000 1.000000
vt 0.375000 1.000000
vt 0.375000 0.000000
vt 0.625000 0.000000
vt 0.625000 0.250000
vt 0.375000 0.250000
vt 0.125000 0.500000
vt 0.375000 0.500000
vt 0.125000 0.750000
s 0
usemtl Material
f 1/1/1 5/2/1 7/3/1 3/4/1
f 4/5/2 3/4/2 7/6/2 8/7/2
f 8/8/3 7/9/3 5/10/3 6/11/3
f 6/12/4 2/13/4 4/5/4 8/14/4
f 2/13/5 1/1/5 3/4/5 4/5/5
f 6/11/6 5/10/6 1/1/6 2/13/6
o Cube.001
v 0.500000 -0.353553 -2.060660
v 0.500000 -1.060660 -1.353553
v 0.500000 1.060660 -0.646447
v 0.500000 0.353553 0.060660
v -0.500000 -0.353553 -2.060660
v -0.500000 -1.060660 -1.353553
v -0.500000 1.060660 -0.646447
v -0.500000 0.353553 0.060660
vn -0.0000 0.7071 -0.7071
vn -0.0000 0.7071 0.7071
vn -1.0000 -0.0000 -0.0000
vn -0.0000 -0.7071 0.7071
vn 1.0000 -0.0000 -0.0000
vn -0.0000 -0.7071 -0.7071
vt 0.625000 0.500000
vt 0.875000 0.500000
vt 0.875000 0.750000
vt 0.625000 0.750000
vt 0.375000 0.750000
vt 0.625000 1.000000
vt 0.375000 1.000000
vt 0.375000 0.000000
vt 0.625000 0.000000
vt 0.625000 0.250000
vt 0.375000 0.250000
vt 0.125000 0.500000
vt 0.375000 0.500000
vt 0.125000 0.750000
s 0
usemtl Material.001
f 9/15/7 13/16/7 15/17/7 11/18/7
f 12/19/8 11/18/8 15/20/8 16/21/8
f 16/22/9 15/23/9 13/24/9 14/25/9
f 14/26/10 10/27/10 12/19/10 16/28/10
f 10/27/11 9/15/11 11/18/11 12/19/11
f 14/25/12 13/24/12 9/15/12 10/27/12
o Cube.002
v -2.060660 -0.353553 -0.500000
v -1.353553 -1.060660 -0.500000
v -0.646447 1.060660 -0.500000
v 0.060660 0.353553 -0.500000
v -2.060660 -0.353553 0.500000
v -1.353553 -1.060660 0.500000
v -0.646447 1.060660 0.500000
v 0.060660 0.353553 0.500000
vn -0.7071 0.7071 -0.0000
vn 0.7071 0.7071 -0.0000
vn -0.0000 -0.0000 1.0000
vn 0.7071 -0.7071 -0.0000
vn -0.0000 -0.0000 -1.0000
vn -0.7071 -0.7071 -0.0000
vt 0.625000 0.500000
vt 0.875000 0.500000
vt 0.875000 0.750000
vt 0.625000 0.750000
vt 0.375000 0.750000
vt 0.625000 1.000000
vt 0.375000 1.000000
vt 0.375000 0.000000
vt 0.625000 0.000000
vt 0.625000 0.250000
vt 0.375000 0.250000
vt 0.125000 0.500000
vt 0.375000 0.500000
vt 0.125000 0.750000
s 0
usemtl Material.002
f 17/29/13 21/30/13 23/31/13 19/32/13
f 20/33/14 19/32/14 23/34/14 24/35/14
f 24/36/15 23/37/15 21/38/15 22/39/15
f 22/40/16 18/41/16 20/33/16 24/42/16
f 18/41/17 17/29/17 19/32/17 20/33/17
f 22/39/18 21/38/18 17/29/18 18/41/18
o Cube.003
v 0.646447 1.060660 -0.500000
v -0.060660 0.353553 -0.500000
v 2.060660 -0.353553 -0.500000
v 1.353553 -1.060660 -0.500000
v 0.646447 1.060660 0.500000
v -0.060660 0.353553 0.500000
v 2.060660 -0.353553 0.500000
v 1.353553 -1.060660 0.500000
vn 0.7071 0.7071 -0.0000
vn 0.7071 -0.7071 -0.0000
vn -0.0000 -0.0000 1.0000
vn -0.7071 -0.7071 -0.0000
vn -0.0000 -0.0000 -1.0000
vn -0.7071 0.7071 -0.0000
vt 0.625000 0.500000
vt 0.875000 0.500000
vt 0.875000 0.750000
vt 0.625000 0.750000
vt 0.375000 0.750000
vt 0.625000 1.000000
vt 0.375000 1.000000
vt 0.375000 0.000000
vt 0.625000 0.000000
vt 0.625000 0.250000
vt 0.375000 0.250000
vt 0.125000 0.500000
vt 0.375000 0.500000
vt 0.125000 0.750000
s 0
usemtl Material.003
f 25/43/19 29/44/19 31/45/19 27/46/19
f 28/47/20 27/46/20 31/48/20 32/49/20
f 32/50/21 31/51/21 29/52/21 30/53/21
f 30/54/22 26/55/22 28/47/22 32/56/22
f 26/55/23 25/43/23 27/46/23 28/47/23
f 30/53/24 29/52/24 25/43/24 26/55/24
o Icosphere
v 0.000000 0.000000 0.000000
v 0.723607 0.552781 0.525725
v -0.276388 0.552780 0.850649
v -0.894426 0.552784 0.000000
v -0.276388 0.552780 -0.850649
v 0.723607 0.552781 -0.525725
v 0.276388 1.447220 0.850649
v -0.723607 1.447219 0.525725
v -0.723607 1.447219 -0.525725
v 0.276388 1.447220 -0.850649
v 0.894426 1.447216 0.000000
v 0.000000 2.000000 0.000000
v -0.162456 0.149346 0.499995
v 0.425323 0.149346 0.309011
v 0.262869 0.474262 0.809012
v 0.850648 0.474264 0.000000
v 0.425323 0.149346 -0.309011
v -0.525730 0.149348 0.000000
v -0.688189 0.474264 0.499997
v -0.162456 0.149346 -0.499995
v -0.688189 0.474264 -0.499997
v 0.262869 0.474262 -0.809012
v 0.951058 1.000000 0.309013
v 0.951058 1.000000 -0.309013
v 0.000000 1.000000 1.000000
v 0.587786 1.000000 0.809017
v -0.951058 1.000000 0.309013
v -0.587786 1.000000 0.809017
v -0.587786 1.000000 -0.809017
v -0.951058 1.000000 -0.309013
v 0.587786 1.000000 -0.809017
v 0.000000 1.000000 -1.000000
v 0.688189 1.525736 0.499997
v -0.262869 1.525738 0.809012
v -0.850648 1.525736 0.000000
v -0.262869 1.525738 -0.809012
v 0.688189 1.525736 -0.499997
v 0.162456 1.850654 0.499995
v 0.525730 1.850652 0.000000
v -0.425323 1.850654 0.309011
v -0.425323 1.850654 -0.309011
v 0.162456 1.850654 -0.499995
vn -0.0000 -1.0000 -0.0000
vn 0.4253 -0.8507 0.3090
vn -0.1625 -0.8507 0.5000
vn 0.7236 -0.4472 0.5257
vn 0.8506 -0.5257 -0.0000
vn -0.5257 -0.8507 -0.0000
vn -0.1625 -0.8507 -0.5000
vn 0.4253 -0.8507 -0.3090
vn 0.9511 -0.0000 0.3090
vn -0.2764 -0.4472 0.8506
vn 0.2629 -0.5257 0.8090
vn -0.0000 -0.0000 1.0000
vn -0.8944 -0.4472 -0.0000
vn -0.6882 -0.5257 0.5000
vn -0.9511 -0.0000 0.3090
vn -0.2764 -0.4472 -0.8506
vn -0.6882 -0.5257 -0.5000
vn -0.5878 -0.0000 -0.8090
vn 0.7236 -0.4472 -0.5257
vn 0.2629 -0.5257 -0.8090
vn 0.5878 -0.0000 -0.8090
vn 0.5878 -0.0000 0.8090
vn -0.5878 -0.0000 0.8090
vn -0.9511 -0.0000 -0.3090
vn -0.0000 -0.0000 -1.0000
vn 0.9511 -0.0000 -0.3090
vn 0.2764 0.4472 0.8506
vn 0.6882 0.5257 0.5000
vn 0.1625 0.8507 0.5000
vn -0.7236 0.4472 0.5257
vn -0.2629 0.5257 0.8090
vn -0.4253 0.8507 0.3090
vn -0.7236 0.4472 -0.5257
vn -0.8506 0.5257 -0.0000
vn -0.4253 0.8507 -0.3090
vn 0.2764 0.4472 -0.8506
vn -0.2629 0.5257 -0.8090
vn 0.1625 0.8507 -0.5000
vn 0.8944 0.4472 -0.0000
vn 0.6882 0.5257 -0.5000
vn 0.5257 0.8507 -0.0000
vn -0.0000 1.0000 -0.0000
vt 0.181819 0.000000
vt 0.227273 0.078731
vt 0.136365 0.078731
vt 0.272728 0.157461
vt 0.318182 0.078731
vt 0.363637 0.157461
vt 0.909091 0.000000
vt 0.954545 0.078731
vt 0.863636 0.078731
vt 0.727273 0.000000
vt 0.772727 0.078731
vt 0.681818 0.078731
vt 0.545455 0.000000
vt 0.590909 0.078731
vt 0.500000 0.078731
vt 0.318182 0.236191
vt 0.090910 0.157461
vt 0.181819 0.157461
vt 0.136365 0.236191
vt 0.818182 0.157461
vt 0.909091 0.157461
vt 0.863636 0.236191
vt 0.636364 0.157461
vt 0.727273 0.157461
vt 0.681818 0.236191
vt 0.454546 0.157461
vt 0.545455 0.157461
vt 0.500000 0.236191
vt 0.227273 0.236191
vt 0.045455 0.236191
vt 0.772727 0.236191
vt 0.590909 0.236191
vt 0.409092 0.236191
vt 0.181819 0.314921
vt 0.272728 0.314921
vt 0.227273 0.393651
vt 0.000000 0.314921
vt 0.090910 0.314921
vt 0.045455 0.393651
vt 0.727273 0.314921
vt 0.818182 0.314921
vt 0.772727 0.393651
vt 0.545455 0.314921
vt 0.636364 0.314921
vt 0.590909 0.393651
vt 0.363637 0.314921
vt 0.454546 0.314921
vt 0.409092 0.393651
vt 0.500000 0.393651
vt 0.454546 0.472382
vt 0.681818 0.393651
vt 0.636364 0.472382
vt 0.863636 0.393651
vt 0.818182 0.472382
vt 0.909091 0.314921
vt 0.136365 0.393651
vt 0.090910 0.472382
vt 0.318182 0.393651
vt 0.272728 0.472382
vt 0.954545 0.236191
vt 1.000000 0.157461
vt 0.409092 0.078731
vt 0.363637 0.000000
s 1
f 33/57/25 46/58/26 45/59/27
f 34/60/28 46/61/26 48/62/29
f 33/63/25 45/64/27 50/65/30
f 33/66/25 50/67/30 52/68/31
f 33/69/25 52/70/31 49/71/32
f 34/60/28 48/62/29 55/72/33
f 35/73/34 47/74/35 57/75/36
f 36/76/37 51/77/38 59/78/39
f 37/79/40 53/80/41 61/81/42
f 38/82/43 54/83/44 63/84/45
f 34/60/28 55/72/33 58/85/46
f 35/73/34 57/75/36 60/86/47
f 36/76/37 59/78/39 62/87/48
f 37/79/40 61/81/42 64/88/49
f 38/82/43 63/84/45 56/89/50
f 39/90/51 65/91/52 70/92/53
f 40/93/54 66/94/55 72/95/56
f 41/96/57 67/97/58 73/98/59
f 42/99/60 68/100/61 74/101/62
f 43/102/63 69/103/64 71/104/65
f 71/104/65 74/105/62 44/106/66
f 71/104/65 69/103/64 74/105/62
f 69/103/64 42/99/60 74/105/62
f 74/101/62 73/107/59 44/108/66
f 74/101/62 68/100/61 73/107/59
f 68/100/61 41/96/57 73/107/59
f 73/98/59 72/109/56 44/110/66
f 73/98/59 67/97/58 72/109/56
f 67/97/58 40/111/54 72/109/56
f 72/95/56 70/112/53 44/113/66
f 72/95/56 66/94/55 70/112/53
f 66/94/55 39/90/51 70/112/53
f 70/92/53 71/114/65 44/115/66
f 70/92/53 65/91/52 71/114/65
f 65/91/52 43/102/63 71/114/65
f 56/89/50 69/103/64 43/102/63
f 56/89/50 63/84/45 69/103/64
f 63/84/45 42/99/60 69/103/64
f 64/88/49 68/100/61 42/99/60
f 64/88/49 61/81/42 68/100/61
f 61/81/42 41/96/57 68/100/61
f 62/87/48 67/97/58 41/96/57
f 62/87/48 59/78/39 67/97/58
f 59/78/39 40/111/54 67/97/58
f 60/86/47 66/94/55 40/93/54
f 60/86/47 57/75/36 66/94/55
f 57/75/36 39/90/51 66/94/55
f 58/85/46 65/91/52 39/90/51
f 58/85/46 55/72/33 65/91/52
f 55/72/33 43/102/63 65/91/52
f 63/84/45 64/88/49 42/99/60
f 63/84/45 54/83/44 64/88/49
f 54/83/44 37/79/40 64/88/49
f 61/81/42 62/87/48 41/96/57
f 61/81/42 53/80/41 62/87/48
f 53/80/41 36/76/37 62/87/48
f 59/78/39 60/116/47 40/111/54
f 59/78/39 51/77/38 60/116/47
f 51/77/38 35/117/34 60/116/47
f 57/75/36 58/85/46 39/90/51
f 57/75/36 47/74/35 58/85/46
f 47/74/35 34/60/28 58/85/46
f 55/72/33 56/89/50 43/102/63
f 55/72/33 48/62/29 56/89/50
f 48/62/29 38/82/43 56/89/50
f 49/71/32 54/83/44 38/82/43
f 49/71/32 52/70/31 54/83/44
f 52/70/31 37/79/40 54/83/44
f 52/68/31 53/80/41 37/79/40
f 52/68/31 50/67/30 53/80/41
f 50/67/30 36/76/37 53/80/41
f 50/65/30 51/77/38 36/76/37
f 50/65/30 45/64/27 51/77/38
f 45/64/27 35/117/34 51/77/38
f 48/62/29 49/118/32 38/82/43
f 48/62/29 46/61/26 49/118/32
f 46/61/26 33/119/25 49/118/32
f 45/59/27 47/74/35 35/73/34
f 45/59/27 46/58/26 47/74/35
f 46/58/26 34/60/28 47/74/35
